G04*
G04 #@! TF.GenerationSoftware,Altium Limited,Altium Designer,23.3.1 (30)*
G04*
G04 Layer_Physical_Order=1*
G04 Layer_Color=255*
%FSLAX44Y44*%
%MOMM*%
G71*
G04*
G04 #@! TF.SameCoordinates,D9A36B41-F4C1-4217-90BE-46095211D254*
G04*
G04*
G04 #@! TF.FilePolarity,Positive*
G04*
G01*
G75*
%ADD10C,0.3000*%
%ADD15R,2.6000X0.2800*%
%ADD23O,1.6000X2.0000*%
%ADD24R,1.6000X2.0000*%
%ADD25O,2.0000X1.6000*%
%ADD26R,2.0000X1.6000*%
%ADD27O,3.2000X1.6000*%
%ADD28C,0.6000*%
D10*
X377300Y338000D02*
Y360000D01*
X350000Y310700D02*
X377300Y338000D01*
X330000Y360000D02*
X377300D01*
X350000Y200000D02*
Y310700D01*
X355000Y105000D02*
X386400D01*
X355000Y95000D02*
X386400D01*
X330000Y257900D02*
X344000Y243900D01*
Y194485D02*
Y243900D01*
Y194485D02*
X363485Y175000D01*
X338400Y145000D02*
X386400D01*
X326700Y156700D02*
X338400Y145000D01*
X327900Y182100D02*
X337900D01*
X268000Y270800D02*
X270000D01*
X337900Y182100D02*
X365000Y155000D01*
X363485Y175000D02*
X386400D01*
X365000Y155000D02*
X386400D01*
X365000Y185000D02*
X386400D01*
X350000Y200000D02*
X365000Y185000D01*
X270000Y169200D02*
X272000D01*
X270000Y245400D02*
X272000D01*
X270000Y270800D02*
X272000D01*
X270000Y347000D02*
X272000D01*
X386000Y67500D02*
X394000D01*
D15*
X386400Y95000D02*
D03*
Y100000D02*
D03*
Y105000D02*
D03*
Y110000D02*
D03*
Y115000D02*
D03*
Y120000D02*
D03*
Y125000D02*
D03*
Y130000D02*
D03*
Y135000D02*
D03*
Y140000D02*
D03*
Y145000D02*
D03*
Y150000D02*
D03*
Y155000D02*
D03*
Y160000D02*
D03*
Y165000D02*
D03*
Y170000D02*
D03*
Y175000D02*
D03*
Y180000D02*
D03*
Y185000D02*
D03*
D23*
X402700Y300000D02*
D03*
D03*
Y360000D02*
D03*
D03*
D24*
X377300Y300000D02*
D03*
D03*
Y360000D02*
D03*
D03*
D25*
X295400Y347000D02*
D03*
Y321600D02*
D03*
Y296200D02*
D03*
Y270800D02*
D03*
Y245400D02*
D03*
Y194600D02*
D03*
Y169200D02*
D03*
Y143800D02*
D03*
Y118400D02*
D03*
X270000Y347000D02*
D03*
Y321600D02*
D03*
Y296200D02*
D03*
Y270800D02*
D03*
Y245400D02*
D03*
Y220000D02*
D03*
Y194600D02*
D03*
Y169200D02*
D03*
Y143800D02*
D03*
X295400Y220000D02*
D03*
D26*
X270000Y118400D02*
D03*
D27*
X453600Y212500D02*
D03*
Y67500D02*
D03*
X394000Y212500D02*
D03*
Y67500D02*
D03*
D28*
X355000Y105000D02*
D03*
Y95000D02*
D03*
X326700Y156700D02*
D03*
X327900Y182100D02*
D03*
X330000Y257900D02*
D03*
Y360000D02*
D03*
M02*
