G04*
G04 #@! TF.GenerationSoftware,Altium Limited,Altium Designer,23.3.1 (30)*
G04*
G04 Layer_Physical_Order=2*
G04 Layer_Color=16711680*
%FSLAX44Y44*%
%MOMM*%
G71*
G04*
G04 #@! TF.SameCoordinates,39857D78-B830-4E28-9448-98776EE7AAD9*
G04*
G04*
G04 #@! TF.FilePolarity,Positive*
G04*
G01*
G75*
%ADD10C,0.3000*%
%ADD23O,2.0000X1.6000*%
%ADD24R,2.0000X1.6000*%
%ADD25R,1.6000X2.0000*%
%ADD26O,1.6000X2.0000*%
%ADD27O,3.2000X1.6000*%
%ADD28C,0.6000*%
D10*
X250000Y190000D02*
X270000Y170000D01*
X250000Y190000D02*
Y300000D01*
X350000Y240000D02*
Y270000D01*
X360000Y280000D01*
X340000Y230000D02*
Y280000D01*
X240000Y310000D02*
Y340000D01*
X247800Y347800D01*
X270000D01*
X240000Y90000D02*
X250000Y80000D01*
X357300D01*
X240000Y90000D02*
Y310000D01*
X357300Y80000D02*
X387300Y110000D01*
Y180000D02*
Y202700D01*
X380000Y210000D02*
X387300Y202700D01*
X360000Y210000D02*
X380000D01*
X340000Y230000D02*
X360000Y210000D01*
X412700Y180000D02*
Y207300D01*
X400000Y220000D02*
X412700Y207300D01*
X370000Y220000D02*
X400000D01*
X350000Y240000D02*
X370000Y220000D01*
X260000Y310000D02*
X330000D01*
X250000Y300000D02*
X260000Y310000D01*
X281700Y283300D02*
X326700D01*
X270000Y271600D02*
X281700Y283300D01*
X270000Y347800D02*
X282200Y360000D01*
X330000D01*
X328388Y119200D02*
X329188Y120000D01*
X330000D01*
X295400Y119200D02*
X328388D01*
X270000Y246200D02*
X281700Y257900D01*
X330000D01*
X394000Y382500D02*
X453600D01*
Y237500D02*
Y382500D01*
X394000Y237500D02*
X453600D01*
D23*
X295400Y347800D02*
D03*
Y322400D02*
D03*
Y297000D02*
D03*
Y271600D02*
D03*
Y246200D02*
D03*
Y195400D02*
D03*
Y170000D02*
D03*
Y144600D02*
D03*
Y119200D02*
D03*
X270000Y347800D02*
D03*
Y322400D02*
D03*
Y297000D02*
D03*
Y271600D02*
D03*
Y246200D02*
D03*
Y220800D02*
D03*
Y195400D02*
D03*
Y170000D02*
D03*
Y144600D02*
D03*
X295400Y220800D02*
D03*
D24*
X270000Y119200D02*
D03*
D25*
X387300Y110000D02*
D03*
D03*
Y180000D02*
D03*
D03*
D26*
X412700Y110000D02*
D03*
D03*
Y180000D02*
D03*
D03*
D27*
X453600Y382500D02*
D03*
Y237500D02*
D03*
X394000Y382500D02*
D03*
Y237500D02*
D03*
D28*
X360000Y280000D02*
D03*
X340000D02*
D03*
X326700Y283300D02*
D03*
X330000Y310000D02*
D03*
Y120000D02*
D03*
Y257900D02*
D03*
Y360000D02*
D03*
M02*
