G04*
G04 #@! TF.GenerationSoftware,Altium Limited,Altium Designer,23.3.1 (30)*
G04*
G04 Layer_Physical_Order=1*
G04 Layer_Color=255*
%FSLAX44Y44*%
%MOMM*%
G71*
G04*
G04 #@! TF.SameCoordinates,39857D78-B830-4E28-9448-98776EE7AAD9*
G04*
G04*
G04 #@! TF.FilePolarity,Positive*
G04*
G01*
G75*
%ADD10C,0.3000*%
%ADD15R,2.6000X0.2800*%
%ADD23O,2.0000X1.6000*%
%ADD24R,2.0000X1.6000*%
%ADD25R,1.6000X2.0000*%
%ADD26O,1.6000X2.0000*%
%ADD27O,3.2000X1.6000*%
%ADD28C,0.6000*%
D10*
X340000Y280000D02*
X350000Y290000D01*
X326700Y283300D02*
X338400Y295000D01*
X330000Y310000D02*
X335000Y305000D01*
X386400D01*
X392700Y130000D02*
X412700Y110000D01*
X360000Y130000D02*
X392700D01*
X361000Y280000D02*
X370000D01*
X350000Y290000D02*
X386400D01*
X369000Y280000D02*
X386400D01*
X330000Y360000D02*
X340000Y350000D01*
X386400D01*
X338400Y295000D02*
X386400D01*
X347900Y257900D02*
X365000Y275000D01*
X386400D01*
X330000Y257900D02*
X347900D01*
X370000Y270000D02*
X380000D01*
X360000Y260000D02*
X370000Y270000D01*
X360000Y130000D02*
Y260000D01*
X350000Y120000D02*
X360000Y130000D01*
X330000Y120000D02*
X350000D01*
D15*
X386400Y265000D02*
D03*
Y270000D02*
D03*
Y275000D02*
D03*
Y280000D02*
D03*
Y285000D02*
D03*
Y290000D02*
D03*
Y295000D02*
D03*
Y300000D02*
D03*
Y305000D02*
D03*
Y310000D02*
D03*
Y315000D02*
D03*
Y320000D02*
D03*
Y325000D02*
D03*
Y330000D02*
D03*
Y335000D02*
D03*
Y340000D02*
D03*
Y345000D02*
D03*
Y350000D02*
D03*
Y355000D02*
D03*
D23*
X295400Y347800D02*
D03*
Y322400D02*
D03*
Y297000D02*
D03*
Y271600D02*
D03*
Y246200D02*
D03*
Y195400D02*
D03*
Y170000D02*
D03*
Y144600D02*
D03*
Y119200D02*
D03*
X270000Y347800D02*
D03*
Y322400D02*
D03*
Y297000D02*
D03*
Y271600D02*
D03*
Y246200D02*
D03*
Y220800D02*
D03*
Y195400D02*
D03*
Y170000D02*
D03*
Y144600D02*
D03*
X295400Y220800D02*
D03*
D24*
X270000Y119200D02*
D03*
D25*
X387300Y110000D02*
D03*
D03*
Y180000D02*
D03*
D03*
D26*
X412700Y110000D02*
D03*
D03*
Y180000D02*
D03*
D03*
D27*
X453600Y382500D02*
D03*
Y237500D02*
D03*
X394000Y382500D02*
D03*
Y237500D02*
D03*
D28*
X360000Y280000D02*
D03*
X340000D02*
D03*
X326700Y283300D02*
D03*
X330000Y310000D02*
D03*
Y120000D02*
D03*
Y257900D02*
D03*
Y360000D02*
D03*
M02*
