G04*
G04 #@! TF.GenerationSoftware,Altium Limited,Altium Designer,23.3.1 (30)*
G04*
G04 Layer_Physical_Order=2*
G04 Layer_Color=16711680*
%FSLAX44Y44*%
%MOMM*%
G71*
G04*
G04 #@! TF.SameCoordinates,D9A36B41-F4C1-4217-90BE-46095211D254*
G04*
G04*
G04 #@! TF.FilePolarity,Positive*
G04*
G01*
G75*
%ADD10C,0.3000*%
%ADD23O,1.6000X2.0000*%
%ADD24R,1.6000X2.0000*%
%ADD25O,2.0000X1.6000*%
%ADD26R,2.0000X1.6000*%
%ADD27O,3.2000X1.6000*%
%ADD28C,0.6000*%
D10*
X354393Y95000D02*
X355000D01*
X347500Y101893D02*
X354393Y95000D01*
X347500Y101893D02*
Y200163D01*
X377300Y229963D01*
Y300000D01*
X355000Y199178D02*
X402700Y246878D01*
X355000Y105000D02*
Y199178D01*
X402700Y246878D02*
Y300000D01*
X368900Y84600D02*
Y198900D01*
X382500Y212500D01*
X368900Y84600D02*
X386000Y67500D01*
X272000Y169200D02*
X284500Y156700D01*
X270000Y169200D02*
X272000D01*
X284500Y156700D02*
X326700D01*
X255500Y258300D02*
X268000Y270800D01*
X255500Y189422D02*
Y258300D01*
Y189422D02*
X262822Y182100D01*
X327900D01*
X394000Y67500D02*
X453600D01*
X382500Y212500D02*
X453600D01*
X272000Y245400D02*
X284500Y257900D01*
X330000D01*
X272000Y347000D02*
X285000Y360000D01*
X330000D01*
D23*
X402700Y300000D02*
D03*
D03*
Y360000D02*
D03*
D03*
D24*
X377300Y300000D02*
D03*
D03*
Y360000D02*
D03*
D03*
D25*
X295400Y347000D02*
D03*
Y321600D02*
D03*
Y296200D02*
D03*
Y270800D02*
D03*
Y245400D02*
D03*
Y194600D02*
D03*
Y169200D02*
D03*
Y143800D02*
D03*
Y118400D02*
D03*
X270000Y347000D02*
D03*
Y321600D02*
D03*
Y296200D02*
D03*
Y270800D02*
D03*
Y245400D02*
D03*
Y220000D02*
D03*
Y194600D02*
D03*
Y169200D02*
D03*
Y143800D02*
D03*
X295400Y220000D02*
D03*
D26*
X270000Y118400D02*
D03*
D27*
X453600Y212500D02*
D03*
Y67500D02*
D03*
X394000Y212500D02*
D03*
Y67500D02*
D03*
D28*
X355000Y105000D02*
D03*
Y95000D02*
D03*
X326700Y156700D02*
D03*
X327900Y182100D02*
D03*
X330000Y257900D02*
D03*
Y360000D02*
D03*
M02*
