G04*
G04 #@! TF.GenerationSoftware,Altium Limited,Altium Designer,23.3.1 (30)*
G04*
G04 Layer_Color=8388736*
%FSLAX44Y44*%
%MOMM*%
G71*
G04*
G04 #@! TF.SameCoordinates,D9A36B41-F4C1-4217-90BE-46095211D254*
G04*
G04*
G04 #@! TF.FilePolarity,Negative*
G04*
G01*
G75*
%ADD16R,2.8032X0.4832*%
%ADD17O,1.8032X2.2032*%
%ADD18R,1.8032X2.2032*%
%ADD19O,2.2032X1.8032*%
%ADD20R,2.2032X1.8032*%
%ADD21O,3.4032X1.8032*%
%ADD22C,0.8032*%
D16*
X386400Y95000D02*
D03*
Y100000D02*
D03*
Y105000D02*
D03*
Y110000D02*
D03*
Y115000D02*
D03*
Y120000D02*
D03*
Y125000D02*
D03*
Y130000D02*
D03*
Y135000D02*
D03*
Y140000D02*
D03*
Y145000D02*
D03*
Y150000D02*
D03*
Y155000D02*
D03*
Y160000D02*
D03*
Y165000D02*
D03*
Y170000D02*
D03*
Y175000D02*
D03*
Y180000D02*
D03*
Y185000D02*
D03*
D17*
X402700Y300000D02*
D03*
D03*
Y360000D02*
D03*
D03*
D18*
X377300Y300000D02*
D03*
D03*
Y360000D02*
D03*
D03*
D19*
X295400Y347000D02*
D03*
Y321600D02*
D03*
Y296200D02*
D03*
Y270800D02*
D03*
Y245400D02*
D03*
Y194600D02*
D03*
Y169200D02*
D03*
Y143800D02*
D03*
Y118400D02*
D03*
X270000Y347000D02*
D03*
Y321600D02*
D03*
Y296200D02*
D03*
Y270800D02*
D03*
Y245400D02*
D03*
Y220000D02*
D03*
Y194600D02*
D03*
Y169200D02*
D03*
Y143800D02*
D03*
X295400Y220000D02*
D03*
D20*
X270000Y118400D02*
D03*
D21*
X453600Y212500D02*
D03*
Y67500D02*
D03*
X394000Y212500D02*
D03*
Y67500D02*
D03*
D22*
X355000Y105000D02*
D03*
Y95000D02*
D03*
X326700Y156700D02*
D03*
X327900Y182100D02*
D03*
X330000Y257900D02*
D03*
Y360000D02*
D03*
M02*
