G04*
G04 #@! TF.GenerationSoftware,Altium Limited,Altium Designer,23.3.1 (30)*
G04*
G04 Layer_Color=65535*
%FSLAX44Y44*%
%MOMM*%
G71*
G04*
G04 #@! TF.SameCoordinates,FC58110F-AFE2-48FC-888D-7BDC24F10527*
G04*
G04*
G04 #@! TF.FilePolarity,Positive*
G04*
G01*
G75*
%ADD10C,0.3000*%
%ADD11C,0.1270*%
%ADD12C,0.2000*%
%ADD13C,0.1000*%
%ADD14C,0.2540*%
D10*
X155000Y303000D02*
G03*
X155000Y303000I-1000J0D01*
G01*
D11*
X169000Y309000D02*
Y323000D01*
Y194000D02*
Y208000D01*
X204200Y334500D02*
X225400D01*
X263800D02*
X280500D01*
X204200Y181500D02*
X225400D01*
X263800D02*
X280500D01*
Y334500D01*
D12*
X162000Y100700D02*
X188000D01*
Y50700D02*
Y100700D01*
X162000Y50700D02*
X188000D01*
X162000D02*
Y100700D01*
X11600Y337000D02*
X102600D01*
Y9000D02*
Y337000D01*
X11600Y9000D02*
X102600D01*
X11600D02*
Y337000D01*
X1000Y1000D02*
Y345000D01*
X298000D01*
Y0D02*
Y345000D01*
X0Y0D02*
X298000D01*
X200000Y66997D02*
X206665D01*
X203332D01*
Y57000D01*
X209997Y63664D02*
X216661Y57000D01*
X213329Y60332D01*
X216661Y63664D01*
X209997Y57000D01*
X201000Y82000D02*
Y91997D01*
X205998D01*
X207665Y90331D01*
Y86998D01*
X205998Y85332D01*
X201000D01*
X204332D02*
X207665Y82000D01*
X210997Y88665D02*
X217661Y82000D01*
X214329Y85332D01*
X217661Y88665D01*
X210997Y82000D01*
X115334Y334998D02*
X112002D01*
X113668D01*
Y326668D01*
X112002Y325002D01*
X110336D01*
X108669Y326668D01*
X125331Y325002D02*
X118666D01*
X125331Y331666D01*
Y333332D01*
X123665Y334998D01*
X120332D01*
X118666Y333332D01*
X172334Y124998D02*
X169002D01*
X170668D01*
Y116668D01*
X169002Y115002D01*
X167335D01*
X165669Y116668D01*
X175666Y123332D02*
X177332Y124998D01*
X180665D01*
X182331Y123332D01*
Y121666D01*
X180665Y120000D01*
X178998D01*
X180665D01*
X182331Y118334D01*
Y116668D01*
X180665Y115002D01*
X177332D01*
X175666Y116668D01*
X183600Y334498D02*
X180268D01*
X181934D01*
Y326168D01*
X180268Y324502D01*
X178602D01*
X176936Y326168D01*
X186932Y324502D02*
X190264D01*
X188598D01*
Y334498D01*
X186932Y332832D01*
D13*
X156000Y84700D02*
X158333D01*
X157166D01*
Y91698D01*
X156000Y90532D01*
D14*
X23840Y294240D02*
X28918D01*
X26379D01*
Y309475D01*
X23840Y306936D01*
M02*
