G04*
G04 #@! TF.GenerationSoftware,Altium Limited,Altium Designer,23.3.1 (30)*
G04*
G04 Layer_Color=16711935*
%FSLAX44Y44*%
%MOMM*%
G71*
G04*
G04 #@! TF.SameCoordinates,C5E1189D-41B8-4AFE-B9F0-E66C201BB24E*
G04*
G04*
G04 #@! TF.FilePolarity,Negative*
G04*
G01*
G75*
%ADD12O,3.4032X1.8032*%
%ADD13O,1.8032X2.2032*%
%ADD14R,1.8032X2.2032*%
%ADD15R,2.2032X1.8032*%
%ADD16O,2.2032X1.8032*%
%ADD26R,2.8032X0.4832*%
D12*
X1012600Y509500D02*
D03*
Y654500D02*
D03*
X953000Y509500D02*
D03*
Y654500D02*
D03*
D13*
X952300Y413000D02*
D03*
D03*
Y457000D02*
D03*
D03*
D14*
X977700Y413000D02*
D03*
D03*
Y457000D02*
D03*
D03*
D15*
X816610Y614680D02*
D03*
D16*
Y589280D02*
D03*
Y563880D02*
D03*
Y538480D02*
D03*
Y513080D02*
D03*
Y487680D02*
D03*
Y462280D02*
D03*
Y436880D02*
D03*
Y411480D02*
D03*
Y386080D02*
D03*
X842010Y614680D02*
D03*
Y589280D02*
D03*
Y563880D02*
D03*
Y538480D02*
D03*
Y513080D02*
D03*
Y487680D02*
D03*
Y462280D02*
D03*
Y436880D02*
D03*
Y411480D02*
D03*
Y386080D02*
D03*
D26*
X945400Y627000D02*
D03*
Y622000D02*
D03*
Y617000D02*
D03*
Y612000D02*
D03*
Y607000D02*
D03*
Y602000D02*
D03*
Y597000D02*
D03*
Y592000D02*
D03*
Y587000D02*
D03*
Y582000D02*
D03*
Y577000D02*
D03*
Y572000D02*
D03*
Y567000D02*
D03*
Y562000D02*
D03*
Y557000D02*
D03*
Y552000D02*
D03*
Y547000D02*
D03*
Y542000D02*
D03*
Y537000D02*
D03*
M02*
