G04*
G04 #@! TF.GenerationSoftware,Altium Limited,Altium Designer,23.3.1 (30)*
G04*
G04 Layer_Physical_Order=1*
G04 Layer_Color=255*
%FSLAX44Y44*%
%MOMM*%
G71*
G04*
G04 #@! TF.SameCoordinates,8297A2FD-D74A-41B9-8D78-43DC0062BACF*
G04*
G04*
G04 #@! TF.FilePolarity,Positive*
G04*
G01*
G75*
%ADD22R,2.6000X0.2800*%
%ADD23C,0.1500*%
%ADD24O,3.2000X1.6000*%
%ADD25O,2.0000X1.6000*%
%ADD26R,2.0000X1.6000*%
%ADD27R,1.6000X2.0000*%
%ADD28O,1.6000X2.0000*%
%ADD29C,0.6000*%
G36*
X504941Y63059D02*
X233059D01*
Y396941D01*
X504941D01*
Y63059D01*
D02*
G37*
%LPC*%
G36*
X461600Y392586D02*
X445600D01*
X442990Y392243D01*
X440557Y391235D01*
X438468Y389632D01*
X436865Y387543D01*
X435857Y385111D01*
X435514Y382500D01*
X435857Y379889D01*
X436865Y377457D01*
X438468Y375368D01*
X440557Y373765D01*
X442990Y372757D01*
X445600Y372414D01*
X461600D01*
X464211Y372757D01*
X466643Y373765D01*
X468732Y375368D01*
X470335Y377457D01*
X471343Y379889D01*
X471686Y382500D01*
X471343Y385111D01*
X470335Y387543D01*
X468732Y389632D01*
X466643Y391235D01*
X464211Y392243D01*
X461600Y392586D01*
D02*
G37*
G36*
X402000D02*
X386000D01*
X383390Y392243D01*
X380957Y391235D01*
X378868Y389632D01*
X377265Y387543D01*
X376257Y385111D01*
X375914Y382500D01*
X376257Y379889D01*
X377265Y377457D01*
X378868Y375368D01*
X380957Y373765D01*
X383390Y372757D01*
X386000Y372414D01*
X402000D01*
X404610Y372757D01*
X407043Y373765D01*
X409132Y375368D01*
X410735Y377457D01*
X411743Y379889D01*
X412086Y382500D01*
X411743Y385111D01*
X410735Y387543D01*
X409132Y389632D01*
X407043Y391235D01*
X404610Y392243D01*
X402000Y392586D01*
D02*
G37*
G36*
X297400Y357886D02*
X293400D01*
X290790Y357543D01*
X288357Y356535D01*
X286268Y354932D01*
X284665Y352843D01*
X283657Y350410D01*
X283448Y348822D01*
X283340Y348003D01*
X282060D01*
X281952Y348822D01*
X281743Y350410D01*
X280735Y352843D01*
X279132Y354932D01*
X277043Y356535D01*
X274611Y357543D01*
X272000Y357886D01*
X268000D01*
X265389Y357543D01*
X262957Y356535D01*
X260868Y354932D01*
X259265Y352843D01*
X258257Y350410D01*
X257914Y347800D01*
X258257Y345190D01*
X259265Y342757D01*
X260868Y340668D01*
X262957Y339065D01*
X265389Y338057D01*
X268000Y337714D01*
X272000D01*
X274611Y338057D01*
X277043Y339065D01*
X279132Y340668D01*
X280735Y342757D01*
X281743Y345190D01*
X281952Y346778D01*
X282060Y347597D01*
X283340D01*
X283448Y346778D01*
X283657Y345190D01*
X284665Y342757D01*
X286268Y340668D01*
X288357Y339065D01*
X290790Y338057D01*
X293400Y337714D01*
X297400D01*
X300011Y338057D01*
X302443Y339065D01*
X304532Y340668D01*
X306135Y342757D01*
X307143Y345190D01*
X307486Y347800D01*
X307143Y350410D01*
X306135Y352843D01*
X304532Y354932D01*
X302443Y356535D01*
X300011Y357543D01*
X297400Y357886D01*
D02*
G37*
G36*
X401400Y358400D02*
X371400D01*
Y353900D01*
X370900D01*
Y351250D01*
X386400D01*
X401900D01*
Y352196D01*
X468839D01*
X479196Y341839D01*
Y338565D01*
X477926Y338039D01*
X468983Y346983D01*
X468073Y347590D01*
X467000Y347804D01*
X401900D01*
Y348750D01*
X386400D01*
X370900D01*
Y346100D01*
X371400D01*
Y343900D01*
X370900D01*
Y341250D01*
X386400D01*
X401900D01*
Y342196D01*
X465839D01*
X474196Y333839D01*
Y187161D01*
X469839Y182804D01*
X422680D01*
X422443Y184611D01*
X421435Y187043D01*
X419832Y189132D01*
X417743Y190735D01*
X415311Y191743D01*
X412700Y192086D01*
X410089Y191743D01*
X407657Y190735D01*
X405568Y189132D01*
X403965Y187043D01*
X402957Y184611D01*
X402614Y182000D01*
Y178000D01*
X402957Y175389D01*
X403965Y172957D01*
X405568Y170868D01*
X407657Y169265D01*
X410089Y168257D01*
X412700Y167914D01*
X415311Y168257D01*
X417743Y169265D01*
X419832Y170868D01*
X421435Y172957D01*
X422443Y175389D01*
X422680Y177196D01*
X471000D01*
X472073Y177410D01*
X472983Y178017D01*
X477926Y182961D01*
X479196Y182435D01*
Y163161D01*
X478839Y162804D01*
X390161D01*
X390104Y162861D01*
Y168000D01*
X397300D01*
Y192000D01*
X377300D01*
Y168000D01*
X384496D01*
Y161700D01*
X384710Y160627D01*
X385317Y159717D01*
X387017Y158017D01*
X387927Y157410D01*
X389000Y157196D01*
X480000D01*
X481073Y157410D01*
X481983Y158017D01*
X483983Y160017D01*
X484590Y160927D01*
X484804Y162000D01*
Y343000D01*
X484590Y344073D01*
X483983Y344983D01*
X471983Y356983D01*
X471073Y357590D01*
X470000Y357804D01*
X401400D01*
Y358400D01*
D02*
G37*
G36*
X401900Y338750D02*
X386400D01*
X370900D01*
Y336100D01*
X371400D01*
Y333900D01*
X370900D01*
Y331250D01*
X386400D01*
X401900D01*
Y333900D01*
X401400D01*
Y336100D01*
X401900D01*
Y338750D01*
D02*
G37*
G36*
X294150Y332991D02*
X293400D01*
X290659Y332630D01*
X288105Y331572D01*
X285911Y329889D01*
X284228Y327695D01*
X283170Y325141D01*
X283088Y324519D01*
X281807D01*
X281743Y325010D01*
X280735Y327443D01*
X279132Y329532D01*
X277043Y331135D01*
X274611Y332143D01*
X272000Y332486D01*
X268000D01*
X265389Y332143D01*
X262957Y331135D01*
X260868Y329532D01*
X259265Y327443D01*
X258257Y325010D01*
X257914Y322400D01*
X258257Y319790D01*
X259265Y317357D01*
X260868Y315268D01*
X262957Y313665D01*
X265389Y312657D01*
X268000Y312314D01*
X272000D01*
X274611Y312657D01*
X277043Y313665D01*
X279132Y315268D01*
X280735Y317357D01*
X281743Y319790D01*
X281807Y320281D01*
X283088D01*
X283170Y319659D01*
X284228Y317105D01*
X285911Y314911D01*
X288105Y313228D01*
X290659Y312170D01*
X293400Y311809D01*
X294150D01*
Y322400D01*
Y332991D01*
D02*
G37*
G36*
X297400D02*
X296650D01*
Y323650D01*
X307826D01*
X307630Y325141D01*
X306572Y327695D01*
X304889Y329889D01*
X302695Y331572D01*
X300141Y332630D01*
X297400Y332991D01*
D02*
G37*
G36*
X307826Y321150D02*
X296650D01*
Y311809D01*
X297400D01*
X300141Y312170D01*
X302695Y313228D01*
X304889Y314911D01*
X306572Y317105D01*
X307630Y319659D01*
X307826Y321150D01*
D02*
G37*
G36*
X401900Y318750D02*
X386400D01*
X370900D01*
Y316100D01*
X371400D01*
Y313900D01*
X370900D01*
Y311250D01*
X386400D01*
X401900D01*
Y313900D01*
X401400D01*
Y316100D01*
X401900D01*
Y318750D01*
D02*
G37*
G36*
X330995Y315000D02*
X329005D01*
X327168Y314239D01*
X325761Y312832D01*
X325000Y310995D01*
Y309005D01*
X325761Y307168D01*
X327168Y305761D01*
X329005Y305000D01*
X330995D01*
X331023Y305012D01*
X333017Y303017D01*
X333927Y302410D01*
X335000Y302196D01*
X370900D01*
Y301250D01*
X386400D01*
X401900D01*
Y303900D01*
X401400D01*
Y306100D01*
X401900D01*
Y308750D01*
X386400D01*
X370900D01*
Y307804D01*
X336161D01*
X334988Y308977D01*
X335000Y309005D01*
Y310995D01*
X334239Y312832D01*
X332832Y314239D01*
X330995Y315000D01*
D02*
G37*
G36*
X294150Y307591D02*
X293400D01*
X290659Y307230D01*
X288105Y306172D01*
X285911Y304489D01*
X284228Y302295D01*
X283170Y299741D01*
X283088Y299119D01*
X281807D01*
X281743Y299611D01*
X280735Y302043D01*
X279132Y304132D01*
X277043Y305735D01*
X274611Y306743D01*
X272000Y307086D01*
X268000D01*
X265389Y306743D01*
X262957Y305735D01*
X260868Y304132D01*
X259265Y302043D01*
X258257Y299611D01*
X257914Y297000D01*
X258257Y294389D01*
X259265Y291957D01*
X260868Y289868D01*
X262957Y288265D01*
X265389Y287257D01*
X268000Y286914D01*
X272000D01*
X274611Y287257D01*
X277043Y288265D01*
X279132Y289868D01*
X280735Y291957D01*
X281743Y294389D01*
X281807Y294881D01*
X283088D01*
X283170Y294259D01*
X284228Y291705D01*
X285911Y289511D01*
X288105Y287828D01*
X290659Y286770D01*
X293400Y286409D01*
X294150D01*
Y297000D01*
Y307591D01*
D02*
G37*
G36*
X297400D02*
X296650D01*
Y298250D01*
X307826D01*
X307630Y299741D01*
X306572Y302295D01*
X304889Y304489D01*
X302695Y306172D01*
X300141Y307230D01*
X297400Y307591D01*
D02*
G37*
G36*
X401900Y298750D02*
X386400D01*
X370900D01*
Y297804D01*
X333000D01*
X331927Y297590D01*
X331017Y296983D01*
X324717Y290683D01*
X324110Y289773D01*
X323896Y288700D01*
Y287551D01*
X323868Y287539D01*
X322461Y286132D01*
X321700Y284295D01*
Y282305D01*
X322461Y280468D01*
X323868Y279061D01*
X325705Y278300D01*
X327695D01*
X329532Y279061D01*
X330939Y280468D01*
X331700Y282305D01*
Y284295D01*
X330939Y286132D01*
X330412Y286659D01*
X330410Y288445D01*
X334161Y292196D01*
X370900D01*
Y291250D01*
X386400D01*
X401900D01*
Y293900D01*
X401400D01*
Y296100D01*
X401900D01*
Y298750D01*
D02*
G37*
G36*
X307826Y295750D02*
X296650D01*
Y286409D01*
X297400D01*
X300141Y286770D01*
X302695Y287828D01*
X304889Y289511D01*
X306572Y291705D01*
X307630Y294259D01*
X307826Y295750D01*
D02*
G37*
G36*
X401900Y288750D02*
X386400D01*
X370900D01*
Y286100D01*
X371400D01*
Y283900D01*
X370900D01*
Y281250D01*
X386400D01*
X401900D01*
Y283900D01*
X401400D01*
Y286100D01*
X401900D01*
Y288750D01*
D02*
G37*
G36*
X294150Y282191D02*
X293400D01*
X290659Y281830D01*
X288105Y280772D01*
X285911Y279089D01*
X284228Y276895D01*
X283170Y274341D01*
X283088Y273719D01*
X281807D01*
X281743Y274210D01*
X280735Y276643D01*
X279132Y278732D01*
X277043Y280335D01*
X274611Y281343D01*
X272000Y281686D01*
X268000D01*
X265389Y281343D01*
X262957Y280335D01*
X260868Y278732D01*
X259265Y276643D01*
X258257Y274210D01*
X257914Y271600D01*
X258257Y268990D01*
X259265Y266557D01*
X260868Y264468D01*
X262957Y262865D01*
X265389Y261857D01*
X268000Y261514D01*
X272000D01*
X274611Y261857D01*
X277043Y262865D01*
X279132Y264468D01*
X280735Y266557D01*
X281743Y268990D01*
X281807Y269481D01*
X283088D01*
X283170Y268859D01*
X284228Y266305D01*
X285911Y264111D01*
X288105Y262428D01*
X290659Y261370D01*
X293400Y261009D01*
X294150D01*
Y271600D01*
Y282191D01*
D02*
G37*
G36*
X297400D02*
X296650D01*
Y272850D01*
X307826D01*
X307630Y274341D01*
X306572Y276895D01*
X304889Y279089D01*
X302695Y280772D01*
X300141Y281830D01*
X297400Y282191D01*
D02*
G37*
G36*
X401900Y278750D02*
X386400D01*
X370900D01*
Y277804D01*
X341000D01*
X339927Y277590D01*
X339017Y276983D01*
X328017Y265983D01*
X327410Y265073D01*
X327196Y264000D01*
Y262151D01*
X327168Y262139D01*
X325761Y260732D01*
X325000Y258895D01*
Y256905D01*
X325761Y255068D01*
X327168Y253661D01*
X329005Y252900D01*
X330995D01*
X332832Y253661D01*
X334239Y255068D01*
X335000Y256905D01*
Y258895D01*
X334239Y260732D01*
X332832Y262139D01*
X333289Y263324D01*
X342161Y272196D01*
X370900D01*
Y271250D01*
X386400D01*
X401900D01*
Y273900D01*
X401400D01*
Y276100D01*
X401900D01*
Y278750D01*
D02*
G37*
G36*
X330995Y365000D02*
X329005D01*
X327168Y364239D01*
X325761Y362832D01*
X325000Y360995D01*
Y359005D01*
X325761Y357168D01*
X327168Y355761D01*
X329005Y355000D01*
X330995D01*
X332832Y355761D01*
X334239Y357168D01*
X334251Y357196D01*
X336196D01*
Y325879D01*
X336410Y324806D01*
X337017Y323896D01*
X337896Y323017D01*
X338806Y322410D01*
X339879Y322196D01*
X370900D01*
Y321250D01*
X386400D01*
X401900D01*
Y322196D01*
X421196D01*
Y267804D01*
X401900D01*
Y268750D01*
X386400D01*
X370900D01*
Y267804D01*
X362000D01*
X360927Y267590D01*
X360017Y266983D01*
X357017Y263983D01*
X356410Y263073D01*
X356196Y262000D01*
Y109000D01*
X356410Y107927D01*
X357017Y107017D01*
X357896Y106139D01*
X358806Y105531D01*
X359879Y105317D01*
X377300D01*
Y98000D01*
X397300D01*
Y122000D01*
X377300D01*
Y110925D01*
X361804D01*
Y260839D01*
X363161Y262196D01*
X371400D01*
Y261600D01*
X401400D01*
Y262196D01*
X423121D01*
X424194Y262410D01*
X425104Y263017D01*
X425983Y263896D01*
X426590Y264806D01*
X426804Y265879D01*
Y324121D01*
X426590Y325194D01*
X425983Y326104D01*
X425104Y326983D01*
X424194Y327590D01*
X423121Y327804D01*
X401900D01*
Y328750D01*
X386400D01*
X370900D01*
Y327804D01*
X341804D01*
Y359121D01*
X341590Y360194D01*
X340983Y361104D01*
X340104Y361983D01*
X339194Y362590D01*
X338121Y362804D01*
X334251D01*
X334239Y362832D01*
X332832Y364239D01*
X330995Y365000D01*
D02*
G37*
G36*
X307826Y270350D02*
X296650D01*
Y261009D01*
X297400D01*
X300141Y261370D01*
X302695Y262428D01*
X304889Y264111D01*
X306572Y266305D01*
X307630Y268859D01*
X307826Y270350D01*
D02*
G37*
G36*
X294150Y256791D02*
X293400D01*
X290659Y256430D01*
X288105Y255372D01*
X285911Y253689D01*
X284228Y251495D01*
X283170Y248941D01*
X283088Y248319D01*
X281807D01*
X281743Y248811D01*
X280735Y251243D01*
X279132Y253332D01*
X277043Y254935D01*
X274611Y255943D01*
X272000Y256286D01*
X268000D01*
X265389Y255943D01*
X262957Y254935D01*
X260868Y253332D01*
X259265Y251243D01*
X258257Y248811D01*
X257914Y246200D01*
X258257Y243589D01*
X259265Y241157D01*
X260868Y239068D01*
X262957Y237465D01*
X265389Y236457D01*
X268000Y236114D01*
X272000D01*
X274611Y236457D01*
X277043Y237465D01*
X279132Y239068D01*
X280735Y241157D01*
X281743Y243589D01*
X281807Y244081D01*
X283088D01*
X283170Y243459D01*
X284228Y240905D01*
X285911Y238711D01*
X288105Y237028D01*
X290659Y235970D01*
X293400Y235609D01*
X294150D01*
Y246200D01*
Y256791D01*
D02*
G37*
G36*
X297400D02*
X296650D01*
Y247450D01*
X307826D01*
X307630Y248941D01*
X306572Y251495D01*
X304889Y253689D01*
X302695Y255372D01*
X300141Y256430D01*
X297400Y256791D01*
D02*
G37*
G36*
X307826Y244950D02*
X296650D01*
Y235609D01*
X297400D01*
X300141Y235970D01*
X302695Y237028D01*
X304889Y238711D01*
X306572Y240905D01*
X307630Y243459D01*
X307826Y244950D01*
D02*
G37*
G36*
X461600Y247586D02*
X445600D01*
X442990Y247243D01*
X440557Y246235D01*
X438468Y244632D01*
X436865Y242543D01*
X435857Y240110D01*
X435514Y237500D01*
X435857Y234890D01*
X436865Y232457D01*
X438468Y230368D01*
X440557Y228765D01*
X442990Y227757D01*
X445600Y227414D01*
X461600D01*
X464211Y227757D01*
X466643Y228765D01*
X468732Y230368D01*
X470335Y232457D01*
X471343Y234890D01*
X471686Y237500D01*
X471343Y240110D01*
X470335Y242543D01*
X468732Y244632D01*
X466643Y246235D01*
X464211Y247243D01*
X461600Y247586D01*
D02*
G37*
G36*
X402000D02*
X386000D01*
X383390Y247243D01*
X380957Y246235D01*
X378868Y244632D01*
X377265Y242543D01*
X376257Y240110D01*
X375914Y237500D01*
X376257Y234890D01*
X377265Y232457D01*
X378868Y230368D01*
X380957Y228765D01*
X383390Y227757D01*
X386000Y227414D01*
X402000D01*
X404610Y227757D01*
X407043Y228765D01*
X409132Y230368D01*
X410735Y232457D01*
X411743Y234890D01*
X412086Y237500D01*
X411743Y240110D01*
X410735Y242543D01*
X409132Y244632D01*
X407043Y246235D01*
X404610Y247243D01*
X402000Y247586D01*
D02*
G37*
G36*
X294150Y231391D02*
X293400D01*
X290659Y231030D01*
X288105Y229972D01*
X285911Y228289D01*
X284228Y226095D01*
X283170Y223541D01*
X283088Y222919D01*
X281807D01*
X281743Y223410D01*
X280735Y225843D01*
X279132Y227932D01*
X277043Y229535D01*
X274611Y230543D01*
X272000Y230886D01*
X268000D01*
X265389Y230543D01*
X262957Y229535D01*
X260868Y227932D01*
X259265Y225843D01*
X258257Y223410D01*
X257914Y220800D01*
X258257Y218190D01*
X259265Y215757D01*
X260868Y213668D01*
X262957Y212065D01*
X265389Y211057D01*
X268000Y210714D01*
X272000D01*
X274611Y211057D01*
X277043Y212065D01*
X279132Y213668D01*
X280735Y215757D01*
X281743Y218190D01*
X281807Y218681D01*
X283088D01*
X283170Y218059D01*
X284228Y215505D01*
X285911Y213311D01*
X288105Y211628D01*
X290659Y210570D01*
X293400Y210209D01*
X294150D01*
Y220800D01*
Y231391D01*
D02*
G37*
G36*
X297400D02*
X296650D01*
Y222050D01*
X307826D01*
X307630Y223541D01*
X306572Y226095D01*
X304889Y228289D01*
X302695Y229972D01*
X300141Y231030D01*
X297400Y231391D01*
D02*
G37*
G36*
X307826Y219550D02*
X296650D01*
Y210209D01*
X297400D01*
X300141Y210570D01*
X302695Y211628D01*
X304889Y213311D01*
X306572Y215505D01*
X307630Y218059D01*
X307826Y219550D01*
D02*
G37*
G36*
X294150Y205991D02*
X293400D01*
X290659Y205630D01*
X288105Y204572D01*
X285911Y202889D01*
X284228Y200695D01*
X283170Y198141D01*
X283088Y197519D01*
X281807D01*
X281743Y198011D01*
X280735Y200443D01*
X279132Y202532D01*
X277043Y204135D01*
X274611Y205143D01*
X272000Y205486D01*
X268000D01*
X265389Y205143D01*
X262957Y204135D01*
X260868Y202532D01*
X259265Y200443D01*
X258257Y198011D01*
X257914Y195400D01*
X258257Y192789D01*
X259265Y190357D01*
X260868Y188268D01*
X262957Y186665D01*
X265389Y185657D01*
X268000Y185314D01*
X272000D01*
X274611Y185657D01*
X277043Y186665D01*
X279132Y188268D01*
X280735Y190357D01*
X281743Y192789D01*
X281807Y193281D01*
X283088D01*
X283170Y192659D01*
X284228Y190105D01*
X285911Y187911D01*
X288105Y186228D01*
X290659Y185170D01*
X293400Y184809D01*
X294150D01*
Y195400D01*
Y205991D01*
D02*
G37*
G36*
X297400D02*
X296650D01*
Y196650D01*
X307826D01*
X307630Y198141D01*
X306572Y200695D01*
X304889Y202889D01*
X302695Y204572D01*
X300141Y205630D01*
X297400Y205991D01*
D02*
G37*
G36*
X307826Y194150D02*
X296650D01*
Y184809D01*
X297400D01*
X300141Y185170D01*
X302695Y186228D01*
X304889Y187911D01*
X306572Y190105D01*
X307630Y192659D01*
X307826Y194150D01*
D02*
G37*
G36*
X294150Y180591D02*
X293400D01*
X290659Y180230D01*
X288105Y179172D01*
X285911Y177489D01*
X284228Y175295D01*
X283170Y172741D01*
X283088Y172119D01*
X281807D01*
X281743Y172610D01*
X280735Y175043D01*
X279132Y177132D01*
X277043Y178735D01*
X274611Y179743D01*
X272000Y180086D01*
X268000D01*
X265389Y179743D01*
X262957Y178735D01*
X260868Y177132D01*
X259265Y175043D01*
X258257Y172610D01*
X257914Y170000D01*
X258257Y167390D01*
X259265Y164957D01*
X260868Y162868D01*
X262957Y161265D01*
X265389Y160257D01*
X268000Y159914D01*
X272000D01*
X274611Y160257D01*
X277043Y161265D01*
X279132Y162868D01*
X280735Y164957D01*
X281743Y167390D01*
X281807Y167881D01*
X283088D01*
X283170Y167259D01*
X284228Y164705D01*
X285911Y162511D01*
X288105Y160828D01*
X290659Y159770D01*
X293400Y159409D01*
X294150D01*
Y170000D01*
Y180591D01*
D02*
G37*
G36*
X297400D02*
X296650D01*
Y171250D01*
X307826D01*
X307630Y172741D01*
X306572Y175295D01*
X304889Y177489D01*
X302695Y179172D01*
X300141Y180230D01*
X297400Y180591D01*
D02*
G37*
G36*
X307826Y168750D02*
X296650D01*
Y159409D01*
X297400D01*
X300141Y159770D01*
X302695Y160828D01*
X304889Y162511D01*
X306572Y164705D01*
X307630Y167259D01*
X307826Y168750D01*
D02*
G37*
G36*
X294150Y155191D02*
X293400D01*
X290659Y154830D01*
X288105Y153772D01*
X285911Y152089D01*
X284228Y149895D01*
X283170Y147341D01*
X283088Y146719D01*
X281807D01*
X281743Y147211D01*
X280735Y149643D01*
X279132Y151732D01*
X277043Y153335D01*
X274611Y154343D01*
X272000Y154686D01*
X268000D01*
X265389Y154343D01*
X262957Y153335D01*
X260868Y151732D01*
X259265Y149643D01*
X258257Y147211D01*
X257914Y144600D01*
X258257Y141989D01*
X259265Y139557D01*
X260868Y137468D01*
X262957Y135865D01*
X265389Y134857D01*
X268000Y134514D01*
X272000D01*
X274611Y134857D01*
X277043Y135865D01*
X279132Y137468D01*
X280735Y139557D01*
X281743Y141989D01*
X281807Y142481D01*
X283088D01*
X283170Y141859D01*
X284228Y139305D01*
X285911Y137111D01*
X288105Y135428D01*
X290659Y134370D01*
X293400Y134009D01*
X294150D01*
Y144600D01*
Y155191D01*
D02*
G37*
G36*
X297400D02*
X296650D01*
Y145850D01*
X307826D01*
X307630Y147341D01*
X306572Y149895D01*
X304889Y152089D01*
X302695Y153772D01*
X300141Y154830D01*
X297400Y155191D01*
D02*
G37*
G36*
X307826Y143350D02*
X296650D01*
Y134009D01*
X297400D01*
X300141Y134370D01*
X302695Y135428D01*
X304889Y137111D01*
X306572Y139305D01*
X307630Y141859D01*
X307826Y143350D01*
D02*
G37*
G36*
X294150Y129791D02*
X293400D01*
X290659Y129430D01*
X288105Y128372D01*
X285911Y126689D01*
X284228Y124495D01*
X283270Y122182D01*
X282000Y122435D01*
Y129200D01*
X258000D01*
Y109200D01*
X282000D01*
Y115965D01*
X283270Y116218D01*
X284228Y113905D01*
X285911Y111711D01*
X288105Y110028D01*
X290659Y108970D01*
X293400Y108609D01*
X294150D01*
Y119200D01*
Y129791D01*
D02*
G37*
G36*
X297400D02*
X296650D01*
Y120450D01*
X307826D01*
X307630Y121941D01*
X306572Y124495D01*
X304889Y126689D01*
X302695Y128372D01*
X300141Y129430D01*
X297400Y129791D01*
D02*
G37*
G36*
X413950Y122426D02*
Y111250D01*
X423291D01*
Y112000D01*
X422930Y114741D01*
X421872Y117295D01*
X420189Y119489D01*
X417995Y121172D01*
X415441Y122230D01*
X413950Y122426D01*
D02*
G37*
G36*
X411450D02*
X409959Y122230D01*
X407405Y121172D01*
X405211Y119489D01*
X403528Y117295D01*
X402470Y114741D01*
X402109Y112000D01*
Y111250D01*
X411450D01*
Y122426D01*
D02*
G37*
G36*
X307826Y117950D02*
X296650D01*
Y108609D01*
X297400D01*
X300141Y108970D01*
X302695Y110028D01*
X304889Y111711D01*
X306572Y113905D01*
X307630Y116459D01*
X307826Y117950D01*
D02*
G37*
G36*
X423291Y108750D02*
X413950D01*
Y97574D01*
X415441Y97770D01*
X417995Y98828D01*
X420189Y100511D01*
X421872Y102705D01*
X422930Y105259D01*
X423291Y108000D01*
Y108750D01*
D02*
G37*
G36*
X411450D02*
X402109D01*
Y108000D01*
X402470Y105259D01*
X403528Y102705D01*
X405211Y100511D01*
X407405Y98828D01*
X409959Y97770D01*
X411450Y97574D01*
Y108750D01*
D02*
G37*
%LPD*%
D22*
X386400Y265000D02*
D03*
Y270000D02*
D03*
Y275000D02*
D03*
Y280000D02*
D03*
Y285000D02*
D03*
Y290000D02*
D03*
Y295000D02*
D03*
Y300000D02*
D03*
Y305000D02*
D03*
Y310000D02*
D03*
Y315000D02*
D03*
Y320000D02*
D03*
Y325000D02*
D03*
Y330000D02*
D03*
Y335000D02*
D03*
Y340000D02*
D03*
Y345000D02*
D03*
Y350000D02*
D03*
Y355000D02*
D03*
D23*
X385421Y108121D02*
X387300Y110000D01*
X359879Y108121D02*
X385421D01*
X359000Y109000D02*
X359879Y108121D01*
X359000Y109000D02*
Y262000D01*
X362000Y265000D01*
X386400D01*
X333000Y295000D02*
X386400D01*
X326700Y288700D02*
X333000Y295000D01*
X326700Y283300D02*
Y288700D01*
X330000Y264000D02*
X341000Y275000D01*
X330000Y257900D02*
Y264000D01*
X341000Y275000D02*
X386400D01*
X467000Y345000D02*
X477000Y335000D01*
X471000Y180000D02*
X477000Y186000D01*
Y335000D01*
X482000Y162000D02*
Y343000D01*
X480000Y160000D02*
X482000Y162000D01*
X470000Y355000D02*
X482000Y343000D01*
X386400Y345000D02*
X467000D01*
X386400Y355000D02*
X470000D01*
X412700Y180000D02*
X471000D01*
X389000Y160000D02*
X480000D01*
X387300Y161700D02*
X389000Y160000D01*
X387300Y161700D02*
Y180000D01*
X423121Y265000D02*
X424000Y265879D01*
Y324121D01*
X423121Y325000D02*
X424000Y324121D01*
X386400Y325000D02*
X423121D01*
X386400Y265000D02*
X423121D01*
X339000Y325879D02*
X339879Y325000D01*
X339000Y325879D02*
Y359121D01*
X339879Y325000D02*
X386400D01*
X338121Y360000D02*
X339000Y359121D01*
X330000Y360000D02*
X338121D01*
X330000Y310000D02*
X335000Y305000D01*
X386400D01*
D24*
X453600Y382500D02*
D03*
Y237500D02*
D03*
X394000Y382500D02*
D03*
Y237500D02*
D03*
D25*
X295400Y347800D02*
D03*
Y322400D02*
D03*
Y297000D02*
D03*
Y271600D02*
D03*
Y246200D02*
D03*
Y195400D02*
D03*
Y170000D02*
D03*
Y144600D02*
D03*
Y119200D02*
D03*
X270000Y347800D02*
D03*
Y322400D02*
D03*
Y297000D02*
D03*
Y271600D02*
D03*
Y246200D02*
D03*
Y220800D02*
D03*
Y195400D02*
D03*
Y170000D02*
D03*
Y144600D02*
D03*
X295400Y220800D02*
D03*
D26*
X270000Y119200D02*
D03*
D27*
X387300Y110000D02*
D03*
D03*
Y180000D02*
D03*
D03*
D28*
X412700Y110000D02*
D03*
D03*
Y180000D02*
D03*
D03*
D29*
X326700Y283300D02*
D03*
X330000Y310000D02*
D03*
Y257900D02*
D03*
Y360000D02*
D03*
M02*
