M48
;Layer_Color=9474304
;FILE_FORMAT=4:4
METRIC,LZ
;TYPE=PLATED
T1F00S00C0.3000
T3F00S00C1.1000
T4F00S00C1.2000
%
T01
X0033Y002579
X003267Y002833
X0033Y0031
Y0036
T03
X0027Y001192
X002954
Y001446
X0027
Y0017
X002954
Y001954
X0027
Y002208
Y002462
X002954
Y002716
Y00297
Y003224
Y003478
X0027
Y003224
Y00297
Y002716
X002954Y002208
T04
X003873Y0011
X004127
Y0018
X003873
M30
