G04*
G04 #@! TF.GenerationSoftware,Altium Limited,Altium Designer,23.3.1 (30)*
G04*
G04 Layer_Color=65535*
%FSLAX44Y44*%
%MOMM*%
G71*
G04*
G04 #@! TF.SameCoordinates,8297A2FD-D74A-41B9-8D78-43DC0062BACF*
G04*
G04*
G04 #@! TF.FilePolarity,Positive*
G04*
G01*
G75*
%ADD10C,0.3000*%
%ADD11C,0.1270*%
%ADD12C,0.2000*%
%ADD13C,0.1000*%
%ADD14C,0.2540*%
D10*
X364000Y355000D02*
G03*
X364000Y355000I-1000J0D01*
G01*
D11*
X489500Y233500D02*
Y386500D01*
X472800Y233500D02*
X489500D01*
X413200D02*
X434400D01*
X472800Y386500D02*
X489500D01*
X413200D02*
X434400D01*
X378000Y246000D02*
Y260000D01*
Y361000D02*
Y375000D01*
D12*
X374300Y97000D02*
Y123000D01*
X424300D01*
Y97000D02*
Y123000D01*
X374300Y97000D02*
X424300D01*
X374300Y167000D02*
X424300D01*
Y193000D01*
X374300D02*
X424300D01*
X374300Y167000D02*
Y193000D01*
D13*
X390300Y161000D02*
Y163333D01*
Y162166D01*
X383302D01*
X384468Y161000D01*
D14*
X382076Y142267D02*
X378744D01*
X380410D01*
Y133936D01*
X378744Y132270D01*
X377078D01*
X375412Y133936D01*
X390407Y132270D02*
Y142267D01*
X385409Y137268D01*
X392073D01*
X382076Y212371D02*
X378744D01*
X380410D01*
Y204040D01*
X378744Y202374D01*
X377078D01*
X375412Y204040D01*
X385409Y210705D02*
X387075Y212371D01*
X390407D01*
X392073Y210705D01*
Y209039D01*
X390407Y207372D01*
X388741D01*
X390407D01*
X392073Y205706D01*
Y204040D01*
X390407Y202374D01*
X387075D01*
X385409Y204040D01*
X348334Y394998D02*
X345002D01*
X346668D01*
Y386668D01*
X345002Y385002D01*
X343335D01*
X341669Y386668D01*
X358331Y385002D02*
X351666D01*
X358331Y391666D01*
Y393332D01*
X356665Y394998D01*
X353332D01*
X351666Y393332D01*
M02*
