G04*
G04 #@! TF.GenerationSoftware,Altium Limited,Altium Designer,23.3.1 (30)*
G04*
G04 Layer_Color=8388736*
%FSLAX44Y44*%
%MOMM*%
G71*
G04*
G04 #@! TF.SameCoordinates,8297A2FD-D74A-41B9-8D78-43DC0062BACF*
G04*
G04*
G04 #@! TF.FilePolarity,Negative*
G04*
G01*
G75*
%ADD15R,2.8032X0.4832*%
%ADD16O,3.4032X1.8032*%
%ADD17O,2.2032X1.8032*%
%ADD18R,2.2032X1.8032*%
%ADD19R,1.8032X2.2032*%
%ADD20O,1.8032X2.2032*%
%ADD21C,0.8032*%
D15*
X386400Y265000D02*
D03*
Y270000D02*
D03*
Y275000D02*
D03*
Y280000D02*
D03*
Y285000D02*
D03*
Y290000D02*
D03*
Y295000D02*
D03*
Y300000D02*
D03*
Y305000D02*
D03*
Y310000D02*
D03*
Y315000D02*
D03*
Y320000D02*
D03*
Y325000D02*
D03*
Y330000D02*
D03*
Y335000D02*
D03*
Y340000D02*
D03*
Y345000D02*
D03*
Y350000D02*
D03*
Y355000D02*
D03*
D16*
X453600Y382500D02*
D03*
Y237500D02*
D03*
X394000Y382500D02*
D03*
Y237500D02*
D03*
D17*
X295400Y347800D02*
D03*
Y322400D02*
D03*
Y297000D02*
D03*
Y271600D02*
D03*
Y246200D02*
D03*
Y195400D02*
D03*
Y170000D02*
D03*
Y144600D02*
D03*
Y119200D02*
D03*
X270000Y347800D02*
D03*
Y322400D02*
D03*
Y297000D02*
D03*
Y271600D02*
D03*
Y246200D02*
D03*
Y220800D02*
D03*
Y195400D02*
D03*
Y170000D02*
D03*
Y144600D02*
D03*
X295400Y220800D02*
D03*
D18*
X270000Y119200D02*
D03*
D19*
X387300Y110000D02*
D03*
D03*
Y180000D02*
D03*
D03*
D20*
X412700Y110000D02*
D03*
D03*
Y180000D02*
D03*
D03*
D21*
X326700Y283300D02*
D03*
X330000Y310000D02*
D03*
Y257900D02*
D03*
Y360000D02*
D03*
M02*
